<mxfile host="app.diagrams.net" agent="Mozilla/5.0 (Windows NT 10.0; Win64; x64) AppleWebKit/537.36 (KHTML, like Gecko) Chrome/129.0.0.0 Safari/537.36 Edg/129.0.0.0" version="24.7.16">
  <diagram name="Page-1" id="2WKGoyR53r7Vz-nkZc36">
    <mxGraphModel dx="868" dy="479" grid="1" gridSize="10" guides="1" tooltips="1" connect="1" arrows="1" fold="1" page="1" pageScale="1" pageWidth="827" pageHeight="1169" math="0" shadow="0">
      <root>
        <mxCell id="0" />
        <mxCell id="1" parent="0" />
        <mxCell id="OHPOqnAPPQ8V9lQSquri-1" value="" style="shape=umlLifeline;perimeter=lifelinePerimeter;whiteSpace=wrap;html=1;container=1;dropTarget=0;collapsible=0;recursiveResize=0;outlineConnect=0;portConstraint=eastwest;newEdgeStyle={&quot;curved&quot;:0,&quot;rounded&quot;:0};participant=umlActor;" vertex="1" parent="1">
          <mxGeometry x="150" y="120" width="20" height="320" as="geometry" />
        </mxCell>
        <mxCell id="OHPOqnAPPQ8V9lQSquri-3" value="App Front" style="shape=umlLifeline;perimeter=lifelinePerimeter;whiteSpace=wrap;html=1;container=1;dropTarget=0;collapsible=0;recursiveResize=0;outlineConnect=0;portConstraint=eastwest;newEdgeStyle={&quot;curved&quot;:0,&quot;rounded&quot;:0};" vertex="1" parent="1">
          <mxGeometry x="200" y="120" width="100" height="110" as="geometry" />
        </mxCell>
        <mxCell id="OHPOqnAPPQ8V9lQSquri-4" value="" style="html=1;points=[[0,0,0,0,5],[0,1,0,0,-5],[1,0,0,0,5],[1,1,0,0,-5]];perimeter=orthogonalPerimeter;outlineConnect=0;targetShapes=umlLifeline;portConstraint=eastwest;newEdgeStyle={&quot;curved&quot;:0,&quot;rounded&quot;:0};" vertex="1" parent="1">
          <mxGeometry x="245" y="220" width="10" height="220" as="geometry" />
        </mxCell>
        <mxCell id="OHPOqnAPPQ8V9lQSquri-5" value="Se connecter" style="html=1;verticalAlign=bottom;startArrow=oval;startFill=1;endArrow=block;startSize=8;curved=0;rounded=0;" edge="1" parent="1" source="OHPOqnAPPQ8V9lQSquri-1" target="OHPOqnAPPQ8V9lQSquri-3">
          <mxGeometry x="-0.0025" width="60" relative="1" as="geometry">
            <mxPoint x="180" y="240" as="sourcePoint" />
            <mxPoint x="240" y="240" as="targetPoint" />
            <Array as="points">
              <mxPoint x="190" y="230" />
            </Array>
            <mxPoint as="offset" />
          </mxGeometry>
        </mxCell>
        <mxCell id="OHPOqnAPPQ8V9lQSquri-6" value="Transaction" style="shape=umlLifeline;perimeter=lifelinePerimeter;whiteSpace=wrap;html=1;container=1;dropTarget=0;collapsible=0;recursiveResize=0;outlineConnect=0;portConstraint=eastwest;newEdgeStyle={&quot;curved&quot;:0,&quot;rounded&quot;:0};" vertex="1" parent="1">
          <mxGeometry x="360" y="120" width="100" height="170" as="geometry" />
        </mxCell>
        <mxCell id="OHPOqnAPPQ8V9lQSquri-7" value="" style="html=1;points=[[0,0,0,0,5],[0,1,0,0,-5],[1,0,0,0,5],[1,1,0,0,-5]];perimeter=orthogonalPerimeter;outlineConnect=0;targetShapes=umlLifeline;portConstraint=eastwest;newEdgeStyle={&quot;curved&quot;:0,&quot;rounded&quot;:0};" vertex="1" parent="1">
          <mxGeometry x="405" y="290" width="11" height="149" as="geometry" />
        </mxCell>
        <mxCell id="OHPOqnAPPQ8V9lQSquri-8" value="Admin" style="shape=umlLifeline;perimeter=lifelinePerimeter;whiteSpace=wrap;html=1;container=1;dropTarget=0;collapsible=0;recursiveResize=0;outlineConnect=0;portConstraint=eastwest;newEdgeStyle={&quot;curved&quot;:0,&quot;rounded&quot;:0};" vertex="1" parent="1">
          <mxGeometry x="520" y="119" width="100" height="221" as="geometry" />
        </mxCell>
        <mxCell id="OHPOqnAPPQ8V9lQSquri-9" value="" style="html=1;points=[[0,0,0,0,5],[0,1,0,0,-5],[1,0,0,0,5],[1,1,0,0,-5]];perimeter=orthogonalPerimeter;outlineConnect=0;targetShapes=umlLifeline;portConstraint=eastwest;newEdgeStyle={&quot;curved&quot;:0,&quot;rounded&quot;:0};" vertex="1" parent="1">
          <mxGeometry x="565" y="330" width="11" height="40" as="geometry" />
        </mxCell>
        <mxCell id="OHPOqnAPPQ8V9lQSquri-10" value="Database" style="shape=umlLifeline;perimeter=lifelinePerimeter;whiteSpace=wrap;html=1;container=1;dropTarget=0;collapsible=0;recursiveResize=0;outlineConnect=0;portConstraint=eastwest;newEdgeStyle={&quot;curved&quot;:0,&quot;rounded&quot;:0};" vertex="1" parent="1">
          <mxGeometry x="679" y="118" width="100" height="120" as="geometry" />
        </mxCell>
        <mxCell id="OHPOqnAPPQ8V9lQSquri-11" value="" style="html=1;points=[[0,0,0,0,5],[0,1,0,0,-5],[1,0,0,0,5],[1,1,0,0,-5]];perimeter=orthogonalPerimeter;outlineConnect=0;targetShapes=umlLifeline;portConstraint=eastwest;newEdgeStyle={&quot;curved&quot;:0,&quot;rounded&quot;:0};" vertex="1" parent="1">
          <mxGeometry x="724" y="237" width="11" height="200" as="geometry" />
        </mxCell>
        <mxCell id="OHPOqnAPPQ8V9lQSquri-12" value="Auth DB" style="html=1;verticalAlign=bottom;startArrow=oval;startFill=1;endArrow=block;startSize=8;curved=0;rounded=0;" edge="1" parent="1" target="OHPOqnAPPQ8V9lQSquri-11">
          <mxGeometry width="60" relative="1" as="geometry">
            <mxPoint x="260" y="250" as="sourcePoint" />
            <mxPoint x="320" y="250" as="targetPoint" />
          </mxGeometry>
        </mxCell>
        <mxCell id="OHPOqnAPPQ8V9lQSquri-13" value="Auth confirmée" style="html=1;verticalAlign=bottom;startArrow=oval;startFill=1;endArrow=block;startSize=8;curved=0;rounded=0;" edge="1" parent="1">
          <mxGeometry width="60" relative="1" as="geometry">
            <mxPoint x="720" y="267" as="sourcePoint" />
            <mxPoint x="255" y="267" as="targetPoint" />
          </mxGeometry>
        </mxCell>
        <mxCell id="OHPOqnAPPQ8V9lQSquri-14" value="initier transaction" style="html=1;verticalAlign=bottom;startArrow=oval;startFill=1;endArrow=block;startSize=8;curved=0;rounded=0;" edge="1" parent="1" target="OHPOqnAPPQ8V9lQSquri-4">
          <mxGeometry width="60" relative="1" as="geometry">
            <mxPoint x="160" y="290" as="sourcePoint" />
            <mxPoint x="220" y="290" as="targetPoint" />
          </mxGeometry>
        </mxCell>
        <mxCell id="OHPOqnAPPQ8V9lQSquri-15" value="Vérifier solde" style="html=1;verticalAlign=bottom;startArrow=oval;startFill=1;endArrow=block;startSize=8;curved=0;rounded=0;" edge="1" parent="1" target="OHPOqnAPPQ8V9lQSquri-7">
          <mxGeometry width="60" relative="1" as="geometry">
            <mxPoint x="256" y="304" as="sourcePoint" />
            <mxPoint x="341" y="304" as="targetPoint" />
          </mxGeometry>
        </mxCell>
        <mxCell id="OHPOqnAPPQ8V9lQSquri-16" value="Balance check" style="html=1;verticalAlign=bottom;startArrow=oval;startFill=1;endArrow=block;startSize=8;curved=0;rounded=0;entryX=-0.364;entryY=0.415;entryDx=0;entryDy=0;entryPerimeter=0;" edge="1" parent="1" target="OHPOqnAPPQ8V9lQSquri-11">
          <mxGeometry width="60" relative="1" as="geometry">
            <mxPoint x="420" y="320" as="sourcePoint" />
            <mxPoint x="480" y="320" as="targetPoint" />
          </mxGeometry>
        </mxCell>
        <mxCell id="OHPOqnAPPQ8V9lQSquri-17" value="Demande autorisation" style="html=1;verticalAlign=bottom;startArrow=oval;startFill=1;endArrow=block;startSize=8;curved=0;rounded=0;" edge="1" parent="1" target="OHPOqnAPPQ8V9lQSquri-8">
          <mxGeometry width="60" relative="1" as="geometry">
            <mxPoint x="420" y="340" as="sourcePoint" />
            <mxPoint x="480" y="340" as="targetPoint" />
          </mxGeometry>
        </mxCell>
        <mxCell id="OHPOqnAPPQ8V9lQSquri-18" value="Autorisation donnée" style="html=1;verticalAlign=bottom;startArrow=oval;startFill=1;endArrow=block;startSize=8;curved=0;rounded=0;" edge="1" parent="1">
          <mxGeometry width="60" relative="1" as="geometry">
            <mxPoint x="565" y="359" as="sourcePoint" />
            <mxPoint x="416" y="359" as="targetPoint" />
          </mxGeometry>
        </mxCell>
        <mxCell id="OHPOqnAPPQ8V9lQSquri-19" value="Mise à jour solde" style="html=1;verticalAlign=bottom;startArrow=oval;startFill=1;endArrow=block;startSize=8;curved=0;rounded=0;" edge="1" parent="1">
          <mxGeometry width="60" relative="1" as="geometry">
            <mxPoint x="420" y="387" as="sourcePoint" />
            <mxPoint x="720" y="387" as="targetPoint" />
          </mxGeometry>
        </mxCell>
        <mxCell id="OHPOqnAPPQ8V9lQSquri-20" value="Confirmation solde" style="html=1;verticalAlign=bottom;startArrow=oval;startFill=1;endArrow=block;startSize=8;curved=0;rounded=0;" edge="1" parent="1">
          <mxGeometry width="60" relative="1" as="geometry">
            <mxPoint x="717" y="408" as="sourcePoint" />
            <mxPoint x="417" y="408" as="targetPoint" />
          </mxGeometry>
        </mxCell>
        <mxCell id="OHPOqnAPPQ8V9lQSquri-21" value="Transaction confirmée" style="html=1;verticalAlign=bottom;startArrow=oval;startFill=1;endArrow=block;startSize=8;curved=0;rounded=0;" edge="1" parent="1" target="OHPOqnAPPQ8V9lQSquri-4">
          <mxGeometry width="60" relative="1" as="geometry">
            <mxPoint x="400" y="420" as="sourcePoint" />
            <mxPoint x="330" y="420" as="targetPoint" />
          </mxGeometry>
        </mxCell>
        <mxCell id="OHPOqnAPPQ8V9lQSquri-22" value="Confirmation Client" style="html=1;verticalAlign=bottom;startArrow=oval;startFill=1;endArrow=block;startSize=8;curved=0;rounded=0;" edge="1" parent="1" target="OHPOqnAPPQ8V9lQSquri-1">
          <mxGeometry width="60" relative="1" as="geometry">
            <mxPoint x="240" y="430" as="sourcePoint" />
            <mxPoint x="180" y="430" as="targetPoint" />
          </mxGeometry>
        </mxCell>
      </root>
    </mxGraphModel>
  </diagram>
</mxfile>
